<svg xmlns="http://www.w3.org/2000/svg" xmlns:xlink="http://www.w3.org/1999/xlink" width="800" height="521.04"><rect width="800" height="521.04" rx="0" ry="0" class="a"/><svg height="521.04" viewBox="0 0 80 52.104" width="800" xmlns="http://www.w3.org/2000/svg" xmlns:xlink="http://www.w3.org/1999/xlink"><style>@keyframes i{0%{transform:translateX(0)}.05%{transform:translateX(-80px)}.06%{transform:translateX(-160px)}1.87%{transform:translateX(-240px)}2.65%{transform:translateX(-320px)}3.36%{transform:translateX(-400px)}3.81%{transform:translateX(-480px)}4.82%{transform:translateX(-560px)}5.89%{transform:translateX(-640px)}7.32%{transform:translateX(-720px)}8.05%{transform:translateX(-800px)}9.22%{transform:translateX(-880px)}9.48%{transform:translateX(-960px)}11.21%{transform:translateX(-1040px)}12.89%{transform:translateX(-1120px)}13.76%{transform:translateX(-1200px)}14.64%{transform:translateX(-1280px)}15.77%{transform:translateX(-1360px)}15.83%{transform:translateX(-1440px)}16.26%{transform:translateX(-1520px)}17.47%{transform:translateX(-1680px)}18.97%{transform:translateX(-1760px)}21.16%{transform:translateX(-1840px)}23.42%{transform:translateX(-1920px)}25.62%{transform:translateX(-2000px)}27.74%{transform:translateX(-2080px)}29.93%{transform:translateX(-2160px)}32.17%{transform:translateX(-2240px)}34.31%{transform:translateX(-2320px)}36.56%{transform:translateX(-2400px)}38.95%{transform:translateX(-2480px)}41.08%{transform:translateX(-2560px)}43.42%{transform:translateX(-2640px)}45.57%{transform:translateX(-2720px)}47.72%{transform:translateX(-2800px)}49.89%{transform:translateX(-2880px)}52.12%{transform:translateX(-2960px)}54.46%{transform:translateX(-3040px)}56.81%{transform:translateX(-3120px)}59.14%{transform:translateX(-3200px)}61.23%{transform:translateX(-3280px)}63.49%{transform:translateX(-3360px)}65.73%{transform:translateX(-3440px)}67.91%{transform:translateX(-3520px)}70.02%{transform:translateX(-3600px)}72.3%{transform:translateX(-3680px)}74.55%{transform:translateX(-3760px)}76.84%{transform:translateX(-3840px)}79.12%{transform:translateX(-3920px)}81.22%{transform:translateX(-4000px)}83.52%{transform:translateX(-4080px)}85.72%{transform:translateX(-4160px)}87.94%{transform:translateX(-4240px)}90.18%{transform:translateX(-4320px)}92.29%{transform:translateX(-4400px)}92.44%{transform:translateX(-4560px)}97.86%{transform:translateX(-4640px)}97.87%{transform:translateX(-4720px)}97.88%{transform:translateX(-4800px)}to{transform:translateX(-4880px)}}.a{fill:#282d35}.c{fill:#66c2cd;font-weight:700}.c,.d,.e,.k,.l{white-space:pre}.d{fill:#a8cc8c;font-weight:700}.e,.k,.l{fill:#b9c0cb}.k,.l{fill:#71bef2}.l{fill:#66c2cd}</style><g font-family="Monaco,Consolas,Menlo,'Bitstream Vera Sans Mono','Powerline Symbols',monospace" font-size="1.67"><defs><symbol id="1"><text y="1.67" class="c">~</text></symbol><symbol id="2"><text y="1.67" class="d">❯</text></symbol><symbol id="3"><text y="1.67" class="d">❯</text><text x="2.004" y="1.67" class="e">teres</text></symbol><symbol id="4"><text y="1.67" class="d">❯</text><text x="2.004" y="1.67" class="e">teres</text><text x="8.016" y="1.67" class="e">demo.mp4</text></symbol><symbol id="5"><text x="4.008" y="1.67" class="e">████████╗███████╗██████╗</text><text x="29.058" y="1.67" class="e">███████╗███████╗</text></symbol><symbol id="6"><text x="4.008" y="1.67" class="e">╚══██╔══╝██╔════╝██╔══██╗██╔════╝██╔════╝</text></symbol><symbol id="7"><text x="7.014" y="1.67" class="e">██║</text><text x="13.026" y="1.67" class="e">█████╗</text><text x="21.042" y="1.67" class="e">██████╔╝█████╗</text><text x="37.074" y="1.67" class="e">███████╗</text></symbol><symbol id="8"><text x="7.014" y="1.67" class="e">██║</text><text x="13.026" y="1.67" class="e">██╔══╝</text><text x="21.042" y="1.67" class="e">██╔══██╗██╔══╝</text><text x="37.074" y="1.67" class="e">╚════██║</text></symbol><symbol id="9"><text x="7.014" y="1.67" class="e">██║</text><text x="13.026" y="1.67" class="e">███████╗██║</text><text x="26.052" y="1.67" class="e">██║███████╗███████║</text></symbol><symbol id="10"><text x="7.014" y="1.67" class="e">╚═╝</text><text x="13.026" y="1.67" class="e">╚══════╝╚═╝</text><text x="26.052" y="1.67" class="e">╚═╝╚══════╝╚══════╝</text></symbol><symbol id="11"><text y="1.67" class="e">Processing</text><text x="11.022" y="1.67" class="e">demo.mp4</text></symbol><symbol id="12"><text y="1.67" class="e">Finished</text><text x="9.018" y="1.67" class="e">processing</text><text x="20.04" y="1.67" class="e">demo.mp4</text><text x="29.058" y="1.67" class="e">to</text><text x="32.064" y="1.67" class="e">demo_blur.mp4</text><text x="46.092" y="1.67" class="e">in</text><text x="49.098" y="1.67" class="e">18</text><text x="52.104" y="1.67" class="e">seconds</text></symbol><symbol id="13"><text y="1.67" class="e">Press</text><text x="6.012" y="1.67" class="e">enter</text><text x="12.024" y="1.67" class="e">to</text><text x="15.03" y="1.67" class="e">close...</text></symbol><symbol id="14"><text y="1.67" class="c">~</text><text x="2.004" y="1.67" class="e">took</text><text x="7.014" y="1.67" style="white-space:pre" fill="#dbab79" font-weight="700">19s</text></symbol><symbol id="a"><path fill="transparent" d="M0 0h80v24H0z"/></symbol><symbol id="b"><path fill="#6f7683" d="M0 0h1.102v2.171H0z"/></symbol></defs><path class="a" d="M0 0h80v52.104H0z"/><g style="animation-duration:23.809253s;animation-iteration-count:infinite;animation-name:i;animation-timing-function:steps(1,end)"><svg width="4960"><svg><use xlink:href="#a"/><use xlink:href="#b" x="-.004"/></svg><svg x="80"><use xlink:href="#a"/><use xlink:href="#b" x="-.004"/></svg><svg x="160"><use xlink:href="#a"/><use xlink:href="#b" x="1.996" y="4.317"/><use xlink:href="#1" y="2.171"/><use xlink:href="#2" y="4.342"/></svg><svg x="240"><use xlink:href="#a"/><use xlink:href="#b" x="2.996" y="4.317"/><use xlink:href="#1" y="2.171"/><text y="6.012" class="d">❯</text><text x="2.004" y="6.012" class="e">t</text></svg><svg x="320"><use xlink:href="#a"/><use xlink:href="#b" x="3.996" y="4.317"/><use xlink:href="#1" y="2.171"/><text y="6.012" class="d">❯</text><text x="2.004" y="6.012" class="e">te</text></svg><svg x="400"><use xlink:href="#a"/><use xlink:href="#b" x="4.996" y="4.317"/><use xlink:href="#1" y="2.171"/><text y="6.012" class="d">❯</text><text x="2.004" y="6.012" class="e">ter</text></svg><svg x="480"><use xlink:href="#a"/><use xlink:href="#b" x="5.996" y="4.317"/><use xlink:href="#1" y="2.171"/><text y="6.012" class="d">❯</text><text x="2.004" y="6.012" class="e">tere</text></svg><svg x="560"><use xlink:href="#a"/><use xlink:href="#b" x="6.996" y="4.317"/><use xlink:href="#1" y="2.171"/><use xlink:href="#3" y="4.342"/></svg><svg x="640"><use xlink:href="#a"/><use xlink:href="#b" x="7.996" y="4.317"/><use xlink:href="#1" y="2.171"/><use xlink:href="#3" y="4.342"/></svg><svg x="720"><use xlink:href="#a"/><use xlink:href="#b" x="8.996" y="4.317"/><use xlink:href="#1" y="2.171"/><text y="6.012" class="d">❯</text><text x="2.004" y="6.012" class="e">teres</text><text x="8.016" y="6.012" class="e">d</text></svg><svg x="800"><use xlink:href="#a"/><use xlink:href="#b" x="9.996" y="4.317"/><use xlink:href="#1" y="2.171"/><text y="6.012" class="d">❯</text><text x="2.004" y="6.012" class="e">teres</text><text x="8.016" y="6.012" class="e">de</text></svg><svg x="880"><use xlink:href="#a"/><use xlink:href="#b" x="10.996" y="4.317"/><use xlink:href="#1" y="2.171"/><text y="6.012" class="d">❯</text><text x="2.004" y="6.012" class="e">teres</text><text x="8.016" y="6.012" class="e">dem</text></svg><svg x="960"><use xlink:href="#a"/><use xlink:href="#b" x="11.996" y="4.317"/><use xlink:href="#1" y="2.171"/><text y="6.012" class="d">❯</text><text x="2.004" y="6.012" class="e">teres</text><text x="8.016" y="6.012" class="e">demo</text></svg><svg x="1040"><use xlink:href="#a"/><use xlink:href="#b" x="12.996" y="4.317"/><use xlink:href="#1" y="2.171"/><text y="6.012" class="d">❯</text><text x="2.004" y="6.012" class="e">teres</text><text x="8.016" y="6.012" class="e">demo.</text></svg><svg x="1120"><use xlink:href="#a"/><use xlink:href="#b" x="13.996" y="4.317"/><use xlink:href="#1" y="2.171"/><text y="6.012" class="d">❯</text><text x="2.004" y="6.012" class="e">teres</text><text x="8.016" y="6.012" class="e">demo.m</text></svg><svg x="1200"><use xlink:href="#a"/><use xlink:href="#b" x="14.996" y="4.317"/><use xlink:href="#1" y="2.171"/><text y="6.012" class="d">❯</text><text x="2.004" y="6.012" class="e">teres</text><text x="8.016" y="6.012" class="e">demo.mp</text></svg><svg x="1280"><use xlink:href="#a"/><use xlink:href="#b" x="15.996" y="4.317"/><use xlink:href="#1" y="2.171"/><use xlink:href="#4" y="4.342"/></svg><svg x="1360"><use xlink:href="#a"/><use xlink:href="#b" x="-.004" y="6.488"/><use xlink:href="#1" y="2.171"/><use xlink:href="#4" y="4.342"/></svg><svg x="1440"><use xlink:href="#a"/><use xlink:href="#b" x="-.004" y="23.856"/><use xlink:href="#1" y="2.171"/><use xlink:href="#4" y="4.342"/><use xlink:href="#5" y="8.684"/><use xlink:href="#6" y="10.855"/><use xlink:href="#7" y="13.026"/><use xlink:href="#8" y="15.197"/><use xlink:href="#9" y="17.368"/><use xlink:href="#10" y="19.539"/></svg><svg x="1520"><use xlink:href="#a"/><use xlink:href="#b" x="-.004" y="26.027"/><use xlink:href="#1" y="2.171"/><use xlink:href="#4" y="4.342"/><use xlink:href="#5" y="8.684"/><use xlink:href="#6" y="10.855"/><use xlink:href="#7" y="13.026"/><use xlink:href="#8" y="15.197"/><use xlink:href="#9" y="17.368"/><use xlink:href="#10" y="19.539"/><use xlink:href="#11" y="23.881"/></svg><svg x="1600"><use xlink:href="#a"/><use xlink:href="#b" x="79.996" y="26.027"/><use xlink:href="#1" y="2.171"/><use xlink:href="#4" y="4.342"/><use xlink:href="#5" y="8.684"/><use xlink:href="#6" y="10.855"/><use xlink:href="#7" y="13.026"/><use xlink:href="#8" y="15.197"/><use xlink:href="#9" y="17.368"/><use xlink:href="#10" y="19.539"/><use xlink:href="#11" y="23.881"/><text x="1.002" y="27.722" class="e">[demo.mp4]</text><text x="12.024" y="27.722" class="k">░░░░░░░░░░░░░░░░░░░░░░░░░░░░░░░░░░░░░░░░░░░░░░░░░░░░░░░░</text><text x="69.138" y="27.722" class="e">0%</text><text x="72.144" y="27.722" class="e">00:00:00</text></svg><svg x="1680"><use xlink:href="#a"/><use xlink:href="#b" x="79.996" y="26.027"/><use xlink:href="#1" y="2.171"/><use xlink:href="#4" y="4.342"/><use xlink:href="#5" y="8.684"/><use xlink:href="#6" y="10.855"/><use xlink:href="#7" y="13.026"/><use xlink:href="#8" y="15.197"/><use xlink:href="#9" y="17.368"/><use xlink:href="#10" y="19.539"/><use xlink:href="#11" y="23.881"/><text x="1.002" y="27.722" class="e">[demo.mp4]</text><text x="12.024" y="27.722" class="l">░</text><text x="13.026" y="27.722" class="k">░░░░░░░░░░░░░░░░░░░░░░░░░░░░░░░░░░░░░░░░░░░░░░░░░░░░░░░</text><text x="69.138" y="27.722" class="e">0%</text><text x="72.144" y="27.722" class="e">00:01:55</text></svg><svg x="1760"><use xlink:href="#a"/><use xlink:href="#b" x="79.996" y="26.027"/><use xlink:href="#1" y="2.171"/><use xlink:href="#4" y="4.342"/><use xlink:href="#5" y="8.684"/><use xlink:href="#6" y="10.855"/><use xlink:href="#7" y="13.026"/><use xlink:href="#8" y="15.197"/><use xlink:href="#9" y="17.368"/><use xlink:href="#10" y="19.539"/><use xlink:href="#11" y="23.881"/><text x="1.002" y="27.722" class="e">[demo.mp4]</text><text x="12.024" y="27.722" class="l">█░</text><text x="14.028" y="27.722" class="k">░░░░░░░░░░░░░░░░░░░░░░░░░░░░░░░░░░░░░░░░░░░░░░░░░░░░░░</text><text x="69.138" y="27.722" class="e">2%</text><text x="72.144" y="27.722" class="e">00:01:05</text></svg><svg x="1840"><use xlink:href="#a"/><use xlink:href="#b" x="79.996" y="26.027"/><use xlink:href="#1" y="2.171"/><use xlink:href="#4" y="4.342"/><use xlink:href="#5" y="8.684"/><use xlink:href="#6" y="10.855"/><use xlink:href="#7" y="13.026"/><use xlink:href="#8" y="15.197"/><use xlink:href="#9" y="17.368"/><use xlink:href="#10" y="19.539"/><use xlink:href="#11" y="23.881"/><text x="1.002" y="27.722" class="e">[demo.mp4]</text><text x="12.024" y="27.722" class="l">██░</text><text x="15.03" y="27.722" class="k">░░░░░░░░░░░░░░░░░░░░░░░░░░░░░░░░░░░░░░░░░░░░░░░░░░░░░</text><text x="69.138" y="27.722" class="e">5%</text><text x="72.144" y="27.722" class="e">00:00:48</text></svg><svg x="1920"><use xlink:href="#a"/><use xlink:href="#b" x="79.996" y="26.027"/><use xlink:href="#1" y="2.171"/><use xlink:href="#4" y="4.342"/><use xlink:href="#5" y="8.684"/><use xlink:href="#6" y="10.855"/><use xlink:href="#7" y="13.026"/><use xlink:href="#8" y="15.197"/><use xlink:href="#9" y="17.368"/><use xlink:href="#10" y="19.539"/><use xlink:href="#11" y="23.881"/><text x="1.002" y="27.722" class="e">[demo.mp4]</text><text x="12.024" y="27.722" class="l">████░</text><text x="17.034" y="27.722" class="k">░░░░░░░░░░░░░░░░░░░░░░░░░░░░░░░░░░░░░░░░░░░░░░░░░░░</text><text x="69.138" y="27.722" class="e">8%</text><text x="72.144" y="27.722" class="e">00:00:39</text></svg><svg x="2000"><use xlink:href="#a"/><use xlink:href="#b" x="79.996" y="26.027"/><use xlink:href="#1" y="2.171"/><use xlink:href="#4" y="4.342"/><use xlink:href="#5" y="8.684"/><use xlink:href="#6" y="10.855"/><use xlink:href="#7" y="13.026"/><use xlink:href="#8" y="15.197"/><use xlink:href="#9" y="17.368"/><use xlink:href="#10" y="19.539"/><use xlink:href="#11" y="23.881"/><text x="1.002" y="27.722" class="e">[demo.mp4]</text><text x="12.024" y="27.722" class="l">█████░</text><text x="18.036" y="27.722" class="k">░░░░░░░░░░░░░░░░░░░░░░░░░░░░░░░░░░░░░░░░░░░░░░░░░</text><text x="68.136" y="27.722" class="e">11%</text><text x="72.144" y="27.722" class="e">00:00:34</text></svg><svg x="2080"><use xlink:href="#a"/><use xlink:href="#b" x="79.996" y="26.027"/><use xlink:href="#1" y="2.171"/><use xlink:href="#4" y="4.342"/><use xlink:href="#5" y="8.684"/><use xlink:href="#6" y="10.855"/><use xlink:href="#7" y="13.026"/><use xlink:href="#8" y="15.197"/><use xlink:href="#9" y="17.368"/><use xlink:href="#10" y="19.539"/><use xlink:href="#11" y="23.881"/><text x="1.002" y="27.722" class="e">[demo.mp4]</text><text x="12.024" y="27.722" class="l">███████░</text><text x="20.04" y="27.722" class="k">░░░░░░░░░░░░░░░░░░░░░░░░░░░░░░░░░░░░░░░░░░░░░░░</text><text x="68.136" y="27.722" class="e">13%</text><text x="72.144" y="27.722" class="e">00:00:30</text></svg><svg x="2160"><use xlink:href="#a"/><use xlink:href="#b" x="79.996" y="26.027"/><use xlink:href="#1" y="2.171"/><use xlink:href="#4" y="4.342"/><use xlink:href="#5" y="8.684"/><use xlink:href="#6" y="10.855"/><use xlink:href="#7" y="13.026"/><use xlink:href="#8" y="15.197"/><use xlink:href="#9" y="17.368"/><use xlink:href="#10" y="19.539"/><use xlink:href="#11" y="23.881"/><text x="1.002" y="27.722" class="e">[demo.mp4]</text><text x="12.024" y="27.722" class="l">████████░</text><text x="21.042" y="27.722" class="k">░░░░░░░░░░░░░░░░░░░░░░░░░░░░░░░░░░░░░░░░░░░░░░</text><text x="68.136" y="27.722" class="e">16%</text><text x="72.144" y="27.722" class="e">00:00:27</text></svg><svg x="2240"><use xlink:href="#a"/><use xlink:href="#b" x="79.996" y="26.027"/><use xlink:href="#1" y="2.171"/><use xlink:href="#4" y="4.342"/><use xlink:href="#5" y="8.684"/><use xlink:href="#6" y="10.855"/><use xlink:href="#7" y="13.026"/><use xlink:href="#8" y="15.197"/><use xlink:href="#9" y="17.368"/><use xlink:href="#10" y="19.539"/><use xlink:href="#11" y="23.881"/><text x="1.002" y="27.722" class="e">[demo.mp4]</text><text x="12.024" y="27.722" class="l">██████████░</text><text x="23.046" y="27.722" class="k">░░░░░░░░░░░░░░░░░░░░░░░░░░░░░░░░░░░░░░░░░░░░</text><text x="68.136" y="27.722" class="e">19%</text><text x="72.144" y="27.722" class="e">00:00:25</text></svg><svg x="2320"><use xlink:href="#a"/><use xlink:href="#b" x="79.996" y="26.027"/><use xlink:href="#1" y="2.171"/><use xlink:href="#4" y="4.342"/><use xlink:href="#5" y="8.684"/><use xlink:href="#6" y="10.855"/><use xlink:href="#7" y="13.026"/><use xlink:href="#8" y="15.197"/><use xlink:href="#9" y="17.368"/><use xlink:href="#10" y="19.539"/><use xlink:href="#11" y="23.881"/><text x="1.002" y="27.722" class="e">[demo.mp4]</text><text x="12.024" y="27.722" class="l">███████████░</text><text x="24.048" y="27.722" class="k">░░░░░░░░░░░░░░░░░░░░░░░░░░░░░░░░░░░░░░░░░░░</text><text x="68.136" y="27.722" class="e">21%</text><text x="72.144" y="27.722" class="e">00:00:23</text></svg><svg x="2400"><use xlink:href="#a"/><use xlink:href="#b" x="79.996" y="26.027"/><use xlink:href="#1" y="2.171"/><use xlink:href="#4" y="4.342"/><use xlink:href="#5" y="8.684"/><use xlink:href="#6" y="10.855"/><use xlink:href="#7" y="13.026"/><use xlink:href="#8" y="15.197"/><use xlink:href="#9" y="17.368"/><use xlink:href="#10" y="19.539"/><use xlink:href="#11" y="23.881"/><text x="1.002" y="27.722" class="e">[demo.mp4]</text><text x="12.024" y="27.722" class="l">█████████████░</text><text x="26.052" y="27.722" class="k">░░░░░░░░░░░░░░░░░░░░░░░░░░░░░░░░░░░░░░░░░</text><text x="68.136" y="27.722" class="e">24%</text><text x="72.144" y="27.722" class="e">00:00:21</text></svg><svg x="2480"><use xlink:href="#a"/><use xlink:href="#b" x="79.996" y="26.027"/><use xlink:href="#1" y="2.171"/><use xlink:href="#4" y="4.342"/><use xlink:href="#5" y="8.684"/><use xlink:href="#6" y="10.855"/><use xlink:href="#7" y="13.026"/><use xlink:href="#8" y="15.197"/><use xlink:href="#9" y="17.368"/><use xlink:href="#10" y="19.539"/><use xlink:href="#11" y="23.881"/><text x="1.002" y="27.722" class="e">[demo.mp4]</text><text x="12.024" y="27.722" class="l">██████████████░</text><text x="27.054" y="27.722" class="k">░░░░░░░░░░░░░░░░░░░░░░░░░░░░░░░░░░░░░░░░</text><text x="68.136" y="27.722" class="e">27%</text><text x="72.144" y="27.722" class="e">00:00:20</text></svg><svg x="2560"><use xlink:href="#a"/><use xlink:href="#b" x="79.996" y="26.027"/><use xlink:href="#1" y="2.171"/><use xlink:href="#4" y="4.342"/><use xlink:href="#5" y="8.684"/><use xlink:href="#6" y="10.855"/><use xlink:href="#7" y="13.026"/><use xlink:href="#8" y="15.197"/><use xlink:href="#9" y="17.368"/><use xlink:href="#10" y="19.539"/><use xlink:href="#11" y="23.881"/><text x="1.002" y="27.722" class="e">[demo.mp4]</text><text x="12.024" y="27.722" class="l">████████████████░</text><text x="29.058" y="27.722" class="k">░░░░░░░░░░░░░░░░░░░░░░░░░░░░░░░░░░░░░░</text><text x="68.136" y="27.722" class="e">30%</text><text x="72.144" y="27.722" class="e">00:00:19</text></svg><svg x="2640"><use xlink:href="#a"/><use xlink:href="#b" x="79.996" y="26.027"/><use xlink:href="#1" y="2.171"/><use xlink:href="#4" y="4.342"/><use xlink:href="#5" y="8.684"/><use xlink:href="#6" y="10.855"/><use xlink:href="#7" y="13.026"/><use xlink:href="#8" y="15.197"/><use xlink:href="#9" y="17.368"/><use xlink:href="#10" y="19.539"/><use xlink:href="#11" y="23.881"/><text x="1.002" y="27.722" class="e">[demo.mp4]</text><text x="12.024" y="27.722" class="l">█████████████████░</text><text x="30.06" y="27.722" class="k">░░░░░░░░░░░░░░░░░░░░░░░░░░░░░░░░░░░░░</text><text x="68.136" y="27.722" class="e">33%</text><text x="72.144" y="27.722" class="e">00:00:17</text></svg><svg x="2720"><use xlink:href="#a"/><use xlink:href="#b" x="79.996" y="26.027"/><use xlink:href="#1" y="2.171"/><use xlink:href="#4" y="4.342"/><use xlink:href="#5" y="8.684"/><use xlink:href="#6" y="10.855"/><use xlink:href="#7" y="13.026"/><use xlink:href="#8" y="15.197"/><use xlink:href="#9" y="17.368"/><use xlink:href="#10" y="19.539"/><use xlink:href="#11" y="23.881"/><text x="1.002" y="27.722" class="e">[demo.mp4]</text><text x="12.024" y="27.722" class="l">███████████████████░</text><text x="32.064" y="27.722" class="k">░░░░░░░░░░░░░░░░░░░░░░░░░░░░░░░░░░░</text><text x="68.136" y="27.722" class="e">36%</text><text x="72.144" y="27.722" class="e">00:00:16</text></svg><svg x="2800"><use xlink:href="#a"/><use xlink:href="#b" x="79.996" y="26.027"/><use xlink:href="#1" y="2.171"/><use xlink:href="#4" y="4.342"/><use xlink:href="#5" y="8.684"/><use xlink:href="#6" y="10.855"/><use xlink:href="#7" y="13.026"/><use xlink:href="#8" y="15.197"/><use xlink:href="#9" y="17.368"/><use xlink:href="#10" y="19.539"/><use xlink:href="#11" y="23.881"/><text x="1.002" y="27.722" class="e">[demo.mp4]</text><text x="12.024" y="27.722" class="l">█████████████████████░</text><text x="34.068" y="27.722" class="k">░░░░░░░░░░░░░░░░░░░░░░░░░░░░░░░░░</text><text x="68.136" y="27.722" class="e">39%</text><text x="72.144" y="27.722" class="e">00:00:15</text></svg><svg x="2880"><use xlink:href="#a"/><use xlink:href="#b" x="79.996" y="26.027"/><use xlink:href="#1" y="2.171"/><use xlink:href="#4" y="4.342"/><use xlink:href="#5" y="8.684"/><use xlink:href="#6" y="10.855"/><use xlink:href="#7" y="13.026"/><use xlink:href="#8" y="15.197"/><use xlink:href="#9" y="17.368"/><use xlink:href="#10" y="19.539"/><use xlink:href="#11" y="23.881"/><text x="1.002" y="27.722" class="e">[demo.mp4]</text><text x="12.024" y="27.722" class="l">███████████████████████░</text><text x="36.072" y="27.722" class="k">░░░░░░░░░░░░░░░░░░░░░░░░░░░░░░░</text><text x="68.136" y="27.722" class="e">42%</text><text x="72.144" y="27.722" class="e">00:00:14</text></svg><svg x="2960"><use xlink:href="#a"/><use xlink:href="#b" x="79.996" y="26.027"/><use xlink:href="#1" y="2.171"/><use xlink:href="#4" y="4.342"/><use xlink:href="#5" y="8.684"/><use xlink:href="#6" y="10.855"/><use xlink:href="#7" y="13.026"/><use xlink:href="#8" y="15.197"/><use xlink:href="#9" y="17.368"/><use xlink:href="#10" y="19.539"/><use xlink:href="#11" y="23.881"/><text x="1.002" y="27.722" class="e">[demo.mp4]</text><text x="12.024" y="27.722" class="l">█████████████████████████░</text><text x="38.076" y="27.722" class="k">░░░░░░░░░░░░░░░░░░░░░░░░░░░░░</text><text x="68.136" y="27.722" class="e">46%</text><text x="72.144" y="27.722" class="e">00:00:09</text></svg><svg x="3040"><use xlink:href="#a"/><use xlink:href="#b" x="79.996" y="26.027"/><use xlink:href="#1" y="2.171"/><use xlink:href="#4" y="4.342"/><use xlink:href="#5" y="8.684"/><use xlink:href="#6" y="10.855"/><use xlink:href="#7" y="13.026"/><use xlink:href="#8" y="15.197"/><use xlink:href="#9" y="17.368"/><use xlink:href="#10" y="19.539"/><use xlink:href="#11" y="23.881"/><text x="1.002" y="27.722" class="e">[demo.mp4]</text><text x="12.024" y="27.722" class="l">███████████████████████████░</text><text x="40.08" y="27.722" class="k">░░░░░░░░░░░░░░░░░░░░░░░░░░░</text><text x="68.136" y="27.722" class="e">49%</text><text x="72.144" y="27.722" class="e">00:00:09</text></svg><svg x="3120"><use xlink:href="#a"/><use xlink:href="#b" x="79.996" y="26.027"/><use xlink:href="#1" y="2.171"/><use xlink:href="#4" y="4.342"/><use xlink:href="#5" y="8.684"/><use xlink:href="#6" y="10.855"/><use xlink:href="#7" y="13.026"/><use xlink:href="#8" y="15.197"/><use xlink:href="#9" y="17.368"/><use xlink:href="#10" y="19.539"/><use xlink:href="#11" y="23.881"/><text x="1.002" y="27.722" class="e">[demo.mp4]</text><text x="12.024" y="27.722" class="l">█████████████████████████████░</text><text x="42.084" y="27.722" class="k">░░░░░░░░░░░░░░░░░░░░░░░░░</text><text x="68.136" y="27.722" class="e">53%</text><text x="72.144" y="27.722" class="e">00:00:08</text></svg><svg x="3200"><use xlink:href="#a"/><use xlink:href="#b" x="79.996" y="26.027"/><use xlink:href="#1" y="2.171"/><use xlink:href="#4" y="4.342"/><use xlink:href="#5" y="8.684"/><use xlink:href="#6" y="10.855"/><use xlink:href="#7" y="13.026"/><use xlink:href="#8" y="15.197"/><use xlink:href="#9" y="17.368"/><use xlink:href="#10" y="19.539"/><use xlink:href="#11" y="23.881"/><text x="1.002" y="27.722" class="e">[demo.mp4]</text><text x="12.024" y="27.722" class="l">███████████████████████████████░</text><text x="44.088" y="27.722" class="k">░░░░░░░░░░░░░░░░░░░░░░░</text><text x="68.136" y="27.722" class="e">57%</text><text x="72.144" y="27.722" class="e">00:00:07</text></svg><svg x="3280"><use xlink:href="#a"/><use xlink:href="#b" x="79.996" y="26.027"/><use xlink:href="#1" y="2.171"/><use xlink:href="#4" y="4.342"/><use xlink:href="#5" y="8.684"/><use xlink:href="#6" y="10.855"/><use xlink:href="#7" y="13.026"/><use xlink:href="#8" y="15.197"/><use xlink:href="#9" y="17.368"/><use xlink:href="#10" y="19.539"/><use xlink:href="#11" y="23.881"/><text x="1.002" y="27.722" class="e">[demo.mp4]</text><text x="12.024" y="27.722" class="l">████████████████████████████████░</text><text x="45.09" y="27.722" class="k">░░░░░░░░░░░░░░░░░░░░░░</text><text x="68.136" y="27.722" class="e">60%</text><text x="72.144" y="27.722" class="e">00:00:07</text></svg><svg x="3360"><use xlink:href="#a"/><use xlink:href="#b" x="79.996" y="26.027"/><use xlink:href="#1" y="2.171"/><use xlink:href="#4" y="4.342"/><use xlink:href="#5" y="8.684"/><use xlink:href="#6" y="10.855"/><use xlink:href="#7" y="13.026"/><use xlink:href="#8" y="15.197"/><use xlink:href="#9" y="17.368"/><use xlink:href="#10" y="19.539"/><use xlink:href="#11" y="23.881"/><text x="1.002" y="27.722" class="e">[demo.mp4]</text><text x="12.024" y="27.722" class="l">██████████████████████████████████░</text><text x="47.094" y="27.722" class="k">░░░░░░░░░░░░░░░░░░░░</text><text x="68.136" y="27.722" class="e">63%</text><text x="72.144" y="27.722" class="e">00:00:06</text></svg><svg x="3440"><use xlink:href="#a"/><use xlink:href="#b" x="79.996" y="26.027"/><use xlink:href="#1" y="2.171"/><use xlink:href="#4" y="4.342"/><use xlink:href="#5" y="8.684"/><use xlink:href="#6" y="10.855"/><use xlink:href="#7" y="13.026"/><use xlink:href="#8" y="15.197"/><use xlink:href="#9" y="17.368"/><use xlink:href="#10" y="19.539"/><use xlink:href="#11" y="23.881"/><text x="1.002" y="27.722" class="e">[demo.mp4]</text><text x="12.024" y="27.722" class="l">████████████████████████████████████░</text><text x="49.098" y="27.722" class="k">░░░░░░░░░░░░░░░░░░</text><text x="68.136" y="27.722" class="e">66%</text><text x="72.144" y="27.722" class="e">00:00:05</text></svg><svg x="3520"><use xlink:href="#a"/><use xlink:href="#b" x="79.996" y="26.027"/><use xlink:href="#1" y="2.171"/><use xlink:href="#4" y="4.342"/><use xlink:href="#5" y="8.684"/><use xlink:href="#6" y="10.855"/><use xlink:href="#7" y="13.026"/><use xlink:href="#8" y="15.197"/><use xlink:href="#9" y="17.368"/><use xlink:href="#10" y="19.539"/><use xlink:href="#11" y="23.881"/><text x="1.002" y="27.722" class="e">[demo.mp4]</text><text x="12.024" y="27.722" class="l">█████████████████████████████████████░</text><text x="50.1" y="27.722" class="k">░░░░░░░░░░░░░░░░░</text><text x="68.136" y="27.722" class="e">69%</text><text x="72.144" y="27.722" class="e">00:00:05</text></svg><svg x="3600"><use xlink:href="#a"/><use xlink:href="#b" x="79.996" y="26.027"/><use xlink:href="#1" y="2.171"/><use xlink:href="#4" y="4.342"/><use xlink:href="#5" y="8.684"/><use xlink:href="#6" y="10.855"/><use xlink:href="#7" y="13.026"/><use xlink:href="#8" y="15.197"/><use xlink:href="#9" y="17.368"/><use xlink:href="#10" y="19.539"/><use xlink:href="#11" y="23.881"/><text x="1.002" y="27.722" class="e">[demo.mp4]</text><text x="12.024" y="27.722" class="l">███████████████████████████████████████░</text><text x="52.104" y="27.722" class="k">░░░░░░░░░░░░░░░</text><text x="68.136" y="27.722" class="e">72%</text><text x="72.144" y="27.722" class="e">00:00:04</text></svg><svg x="3680"><use xlink:href="#a"/><use xlink:href="#b" x="79.996" y="26.027"/><use xlink:href="#1" y="2.171"/><use xlink:href="#4" y="4.342"/><use xlink:href="#5" y="8.684"/><use xlink:href="#6" y="10.855"/><use xlink:href="#7" y="13.026"/><use xlink:href="#8" y="15.197"/><use xlink:href="#9" y="17.368"/><use xlink:href="#10" y="19.539"/><use xlink:href="#11" y="23.881"/><text x="1.002" y="27.722" class="e">[demo.mp4]</text><text x="12.024" y="27.722" class="l">█████████████████████████████████████████░</text><text x="54.108" y="27.722" class="k">░░░░░░░░░░░░░</text><text x="68.136" y="27.722" class="e">75%</text><text x="72.144" y="27.722" class="e">00:00:04</text></svg><svg x="3760"><use xlink:href="#a"/><use xlink:href="#b" x="79.996" y="26.027"/><use xlink:href="#1" y="2.171"/><use xlink:href="#4" y="4.342"/><use xlink:href="#5" y="8.684"/><use xlink:href="#6" y="10.855"/><use xlink:href="#7" y="13.026"/><use xlink:href="#8" y="15.197"/><use xlink:href="#9" y="17.368"/><use xlink:href="#10" y="19.539"/><use xlink:href="#11" y="23.881"/><text x="1.002" y="27.722" class="e">[demo.mp4]</text><text x="12.024" y="27.722" class="l">██████████████████████████████████████████░</text><text x="55.11" y="27.722" class="k">░░░░░░░░░░░░</text><text x="68.136" y="27.722" class="e">77%</text><text x="72.144" y="27.722" class="e">00:00:03</text></svg><svg x="3840"><use xlink:href="#a"/><use xlink:href="#b" x="79.996" y="26.027"/><use xlink:href="#1" y="2.171"/><use xlink:href="#4" y="4.342"/><use xlink:href="#5" y="8.684"/><use xlink:href="#6" y="10.855"/><use xlink:href="#7" y="13.026"/><use xlink:href="#8" y="15.197"/><use xlink:href="#9" y="17.368"/><use xlink:href="#10" y="19.539"/><use xlink:href="#11" y="23.881"/><text x="1.002" y="27.722" class="e">[demo.mp4]</text><text x="12.024" y="27.722" class="l">████████████████████████████████████████████░</text><text x="57.114" y="27.722" class="k">░░░░░░░░░░</text><text x="68.136" y="27.722" class="e">81%</text><text x="72.144" y="27.722" class="e">00:00:03</text></svg><svg x="3920"><use xlink:href="#a"/><use xlink:href="#b" x="79.996" y="26.027"/><use xlink:href="#1" y="2.171"/><use xlink:href="#4" y="4.342"/><use xlink:href="#5" y="8.684"/><use xlink:href="#6" y="10.855"/><use xlink:href="#7" y="13.026"/><use xlink:href="#8" y="15.197"/><use xlink:href="#9" y="17.368"/><use xlink:href="#10" y="19.539"/><use xlink:href="#11" y="23.881"/><text x="1.002" y="27.722" class="e">[demo.mp4]</text><text x="12.024" y="27.722" class="l">█████████████████████████████████████████████░</text><text x="58.116" y="27.722" class="k">░░░░░░░░░</text><text x="68.136" y="27.722" class="e">83%</text><text x="72.144" y="27.722" class="e">00:00:02</text></svg><svg x="4000"><use xlink:href="#a"/><use xlink:href="#b" x="79.996" y="26.027"/><use xlink:href="#1" y="2.171"/><use xlink:href="#4" y="4.342"/><use xlink:href="#5" y="8.684"/><use xlink:href="#6" y="10.855"/><use xlink:href="#7" y="13.026"/><use xlink:href="#8" y="15.197"/><use xlink:href="#9" y="17.368"/><use xlink:href="#10" y="19.539"/><use xlink:href="#11" y="23.881"/><text x="1.002" y="27.722" class="e">[demo.mp4]</text><text x="12.024" y="27.722" class="l">███████████████████████████████████████████████░</text><text x="60.12" y="27.722" class="k">░░░░░░░</text><text x="68.136" y="27.722" class="e">86%</text><text x="72.144" y="27.722" class="e">00:00:02</text></svg><svg x="4080"><use xlink:href="#a"/><use xlink:href="#b" x="79.996" y="26.027"/><use xlink:href="#1" y="2.171"/><use xlink:href="#4" y="4.342"/><use xlink:href="#5" y="8.684"/><use xlink:href="#6" y="10.855"/><use xlink:href="#7" y="13.026"/><use xlink:href="#8" y="15.197"/><use xlink:href="#9" y="17.368"/><use xlink:href="#10" y="19.539"/><use xlink:href="#11" y="23.881"/><text x="1.002" y="27.722" class="e">[demo.mp4]</text><text x="12.024" y="27.722" class="l">████████████████████████████████████████████████░</text><text x="61.122" y="27.722" class="k">░░░░░░</text><text x="68.136" y="27.722" class="e">89%</text><text x="72.144" y="27.722" class="e">00:00:01</text></svg><svg x="4160"><use xlink:href="#a"/><use xlink:href="#b" x="79.996" y="26.027"/><use xlink:href="#1" y="2.171"/><use xlink:href="#4" y="4.342"/><use xlink:href="#5" y="8.684"/><use xlink:href="#6" y="10.855"/><use xlink:href="#7" y="13.026"/><use xlink:href="#8" y="15.197"/><use xlink:href="#9" y="17.368"/><use xlink:href="#10" y="19.539"/><use xlink:href="#11" y="23.881"/><text x="1.002" y="27.722" class="e">[demo.mp4]</text><text x="12.024" y="27.722" class="l">██████████████████████████████████████████████████░</text><text x="63.126" y="27.722" class="k">░░░░</text><text x="68.136" y="27.722" class="e">92%</text><text x="72.144" y="27.722" class="e">00:00:01</text></svg><svg x="4240"><use xlink:href="#a"/><use xlink:href="#b" x="79.996" y="26.027"/><use xlink:href="#1" y="2.171"/><use xlink:href="#4" y="4.342"/><use xlink:href="#5" y="8.684"/><use xlink:href="#6" y="10.855"/><use xlink:href="#7" y="13.026"/><use xlink:href="#8" y="15.197"/><use xlink:href="#9" y="17.368"/><use xlink:href="#10" y="19.539"/><use xlink:href="#11" y="23.881"/><text x="1.002" y="27.722" class="e">[demo.mp4]</text><text x="12.024" y="27.722" class="l">███████████████████████████████████████████████████░</text><text x="64.128" y="27.722" class="k">░░░</text><text x="68.136" y="27.722" class="e">94%</text><text x="72.144" y="27.722" class="e">00:00:01</text></svg><svg x="4320"><use xlink:href="#a"/><use xlink:href="#b" x="79.996" y="26.027"/><use xlink:href="#1" y="2.171"/><use xlink:href="#4" y="4.342"/><use xlink:href="#5" y="8.684"/><use xlink:href="#6" y="10.855"/><use xlink:href="#7" y="13.026"/><use xlink:href="#8" y="15.197"/><use xlink:href="#9" y="17.368"/><use xlink:href="#10" y="19.539"/><use xlink:href="#11" y="23.881"/><text x="1.002" y="27.722" class="e">[demo.mp4]</text><text x="12.024" y="27.722" class="l">█████████████████████████████████████████████████████░</text><text x="66.132" y="27.722" class="k">░</text><text x="68.136" y="27.722" class="e">97%</text><text x="72.144" y="27.722" class="e">00:00:00</text></svg><svg x="4400"><use xlink:href="#a"/><use xlink:href="#b" x="-.004" y="26.027"/><use xlink:href="#1" y="2.171"/><use xlink:href="#4" y="4.342"/><use xlink:href="#5" y="8.684"/><use xlink:href="#6" y="10.855"/><use xlink:href="#7" y="13.026"/><use xlink:href="#8" y="15.197"/><use xlink:href="#9" y="17.368"/><use xlink:href="#10" y="19.539"/><use xlink:href="#11" y="23.881"/></svg><svg x="4480"><use xlink:href="#a"/><use xlink:href="#b" x="-.004" y="28.198"/><use xlink:href="#1" y="2.171"/><use xlink:href="#4" y="4.342"/><use xlink:href="#5" y="8.684"/><use xlink:href="#6" y="10.855"/><use xlink:href="#7" y="13.026"/><use xlink:href="#8" y="15.197"/><use xlink:href="#9" y="17.368"/><use xlink:href="#10" y="19.539"/><use xlink:href="#11" y="23.881"/><use xlink:href="#12" y="26.052"/></svg><svg x="4560"><use xlink:href="#a"/><use xlink:href="#b" x="22.996" y="30.369"/><use xlink:href="#1" y="2.171"/><use xlink:href="#4" y="4.342"/><use xlink:href="#5" y="8.684"/><use xlink:href="#6" y="10.855"/><use xlink:href="#7" y="13.026"/><use xlink:href="#8" y="15.197"/><use xlink:href="#9" y="17.368"/><use xlink:href="#10" y="19.539"/><use xlink:href="#11" y="23.881"/><use xlink:href="#12" y="26.052"/><use xlink:href="#13" y="30.394"/></svg><svg x="4640"><use xlink:href="#a"/><use xlink:href="#b" x="-.004" y="32.54"/><use xlink:href="#1" y="2.171"/><use xlink:href="#4" y="4.342"/><use xlink:href="#5" y="8.684"/><use xlink:href="#6" y="10.855"/><use xlink:href="#7" y="13.026"/><use xlink:href="#8" y="15.197"/><use xlink:href="#9" y="17.368"/><use xlink:href="#10" y="19.539"/><use xlink:href="#11" y="23.881"/><use xlink:href="#12" y="26.052"/><use xlink:href="#13" y="30.394"/></svg><svg x="4720"><use xlink:href="#a"/><use xlink:href="#b" x="-.004" y="32.54"/><use xlink:href="#1" y="2.171"/><use xlink:href="#4" y="4.342"/><use xlink:href="#5" y="8.684"/><use xlink:href="#6" y="10.855"/><use xlink:href="#7" y="13.026"/><use xlink:href="#8" y="15.197"/><use xlink:href="#9" y="17.368"/><use xlink:href="#10" y="19.539"/><use xlink:href="#11" y="23.881"/><use xlink:href="#12" y="26.052"/><use xlink:href="#13" y="30.394"/></svg><svg x="4800"><use xlink:href="#a"/><use xlink:href="#b" x="1.996" y="36.882"/><use xlink:href="#1" y="2.171"/><use xlink:href="#4" y="4.342"/><use xlink:href="#5" y="8.684"/><use xlink:href="#6" y="10.855"/><use xlink:href="#7" y="13.026"/><use xlink:href="#8" y="15.197"/><use xlink:href="#9" y="17.368"/><use xlink:href="#10" y="19.539"/><use xlink:href="#11" y="23.881"/><use xlink:href="#12" y="26.052"/><use xlink:href="#13" y="30.394"/><use xlink:href="#14" y="34.736"/><use xlink:href="#2" y="36.907"/></svg><svg x="4880"><use xlink:href="#a"/><use xlink:href="#b" x="-.004" y="39.053"/><use xlink:href="#1" y="2.171"/><use xlink:href="#4" y="4.342"/><use xlink:href="#5" y="8.684"/><use xlink:href="#6" y="10.855"/><use xlink:href="#7" y="13.026"/><use xlink:href="#8" y="15.197"/><use xlink:href="#9" y="17.368"/><use xlink:href="#10" y="19.539"/><use xlink:href="#11" y="23.881"/><use xlink:href="#12" y="26.052"/><use xlink:href="#13" y="30.394"/><use xlink:href="#14" y="34.736"/><use xlink:href="#2" y="36.907"/></svg></svg></g></g></svg></svg>